<svg xmlns="http://www.w3.org/2000/svg" viewBox="0 0 640 300" width="640" height="300" font-family="system-ui, -apple-system, 'Segoe UI', sans-serif">
  <rect x="0.5" y="0.5" width="639" height="299" rx="12" fill="#fcfcfb" stroke="rgba(11,11,11,0.10)"/>
  <text x="20" y="28" font-size="15" font-weight="600" fill="#0b0b0b">Mistake: Chasing the Wick Above ₹100</text>
  <text x="20" y="44" font-size="12" fill="#52514e">A long upper wick pokes past ₹100, but the candle closes back below it — chasing the poke gets trapped</text>
  <g transform="translate(0, 44)"><line x1="44" y1="8.0" x2="620" y2="8.0" stroke="#e1e0d9" stroke-width="1"/><line x1="44" y1="59.0" x2="620" y2="59.0" stroke="#e1e0d9" stroke-width="1"/><line x1="44" y1="110.0" x2="620" y2="110.0" stroke="#e1e0d9" stroke-width="1"/><line x1="44" y1="161.0" x2="620" y2="161.0" stroke="#e1e0d9" stroke-width="1"/><line x1="44" y1="212.0" x2="620" y2="212.0" stroke="#e1e0d9" stroke-width="1"/><line x1="44" y1="212.0" x2="620" y2="212.0" stroke="#c3c2b7" stroke-width="1"/><line x1="140.0" y1="119.1" x2="140.0" y2="155.7" stroke="#0ca30c" stroke-width="1.5"/><rect x="128.0" y="119.1" width="24.0" height="2.0" fill="#fcfcfb" stroke="#0ca30c" stroke-width="1.5" rx="1.5"/><text x="140.0" y="232" font-size="10" text-anchor="middle" fill="#898781">Before</text><line x1="332.0" y1="27.7" x2="332.0" y2="137.4" stroke="#0ca30c" stroke-width="1.5"/><rect x="320.0" y="100.9" width="24.0" height="18.3" fill="#fcfcfb" stroke="#0ca30c" stroke-width="1.5" rx="1.5"/><text x="332.0" y="232" font-size="10" text-anchor="middle" fill="#898781">Poke &amp; fail</text><line x1="524.0" y1="100.9" x2="524.0" y2="192.3" stroke="#d03b3b" stroke-width="1.5"/><rect x="512.0" y="100.9" width="24.0" height="73.1" fill="#d03b3b" stroke="#d03b3b" stroke-width="1.5" rx="1.5"/><text x="524.0" y="232" font-size="10" text-anchor="middle" fill="#898781">Falls back</text></g>
</svg>