<svg xmlns="http://www.w3.org/2000/svg" viewBox="0 0 760 156" width="760" height="156" font-family="system-ui, -apple-system, 'Segoe UI', sans-serif">
  <rect x="0.5" y="0.5" width="759" height="155" rx="12" fill="#fcfcfb" stroke="rgba(11,11,11,0.10)"/>
  <text x="20" y="28" font-size="15" font-weight="600" fill="#0b0b0b">Fees hit you going in and going out</text>
  <text x="20" y="44" font-size="12" fill="#52514e">Brokerage, exchange/regulatory fees, STT, GST, stamp duty, and DP charges attach at each step</text>
  <g transform="translate(0, 44)"><rect x="20" y="70.0" width="96" height="56" rx="10" fill="#fcfcfb" stroke="#2a78d6" stroke-width="2"/><text x="68" y="102.0" font-size="11.5" font-weight="600" text-anchor="middle" fill="#0b0b0b">Buy order</text><line x1="120" y1="98" x2="140.8" y2="98" stroke="#898781" stroke-width="1.5"/><path d="M 134.8 93 L 142.8 98 L 134.8 103 Z" fill="#898781"/><rect x="144.8" y="70.0" width="96" height="56" rx="10" fill="#fcfcfb" stroke="#2a78d6" stroke-width="2"/><text x="192.8" y="102.0" font-size="11.5" font-weight="600" text-anchor="middle" fill="#0b0b0b">Brokerage + fees</text><line x1="244.8" y1="98" x2="265.6" y2="98" stroke="#898781" stroke-width="1.5"/><path d="M 259.6 93 L 267.6 98 L 259.6 103 Z" fill="#898781"/><rect x="269.6" y="70.0" width="96" height="56" rx="10" fill="#fcfcfb" stroke="#2a78d6" stroke-width="2"/><text x="317.6" y="102.0" font-size="11.5" font-weight="600" text-anchor="middle" fill="#0b0b0b">Holding period</text><line x1="369.6" y1="98" x2="390.40000000000003" y2="98" stroke="#898781" stroke-width="1.5"/><path d="M 384.40000000000003 93 L 392.40000000000003 98 L 384.40000000000003 103 Z" fill="#898781"/><rect x="394.4" y="70.0" width="96" height="56" rx="10" fill="#fcfcfb" stroke="#2a78d6" stroke-width="2"/><text x="442.4" y="102.0" font-size="11.5" font-weight="600" text-anchor="middle" fill="#0b0b0b">Sell order</text><line x1="494.4" y1="98" x2="515.1999999999999" y2="98" stroke="#898781" stroke-width="1.5"/><path d="M 509.19999999999993 93 L 517.1999999999999 98 L 509.19999999999993 103 Z" fill="#898781"/><rect x="519.2" y="70.0" width="96" height="56" rx="10" fill="#fcfcfb" stroke="#2a78d6" stroke-width="2"/><text x="567.2" y="102.0" font-size="11.5" font-weight="600" text-anchor="middle" fill="#0b0b0b">Brokerage + fees</text><line x1="619.2" y1="98" x2="640" y2="98" stroke="#898781" stroke-width="1.5"/><path d="M 634 93 L 642 98 L 634 103 Z" fill="#898781"/><rect x="644" y="70.0" width="96" height="56" rx="10" fill="#fcfcfb" stroke="#2a78d6" stroke-width="2"/><text x="692" y="102.0" font-size="11.5" font-weight="600" text-anchor="middle" fill="#0b0b0b">Net proceeds</text></g>
</svg>