<svg xmlns="http://www.w3.org/2000/svg" viewBox="0 0 640 300" width="640" height="300" font-family="system-ui, -apple-system, 'Segoe UI', sans-serif">
  <rect x="0.5" y="0.5" width="639" height="299" rx="12" fill="#fcfcfb" stroke="rgba(11,11,11,0.10)"/>
  <text x="20" y="28" font-size="15" font-weight="600" fill="#0b0b0b">Fibonacci levels in a downtrend</text>
  <text x="20" y="44" font-size="12" fill="#52514e">Drag from the swing high to the swing low (the reverse) — levels above act as resistance</text>
  <g transform="translate(0, 44)"><line x1="44" y1="8.0" x2="620" y2="8.0" stroke="#e1e0d9" stroke-width="1"/><line x1="44" y1="59.0" x2="620" y2="59.0" stroke="#e1e0d9" stroke-width="1"/><line x1="44" y1="110.0" x2="620" y2="110.0" stroke="#e1e0d9" stroke-width="1"/><line x1="44" y1="161.0" x2="620" y2="161.0" stroke="#e1e0d9" stroke-width="1"/><line x1="44" y1="212.0" x2="620" y2="212.0" stroke="#e1e0d9" stroke-width="1"/><line x1="44" y1="152.8" x2="620" y2="152.8" stroke="#d03b3b" stroke-width="1.5" stroke-dasharray="5 4"/><text x="50.0" y="148.8" font-size="10" text-anchor="start" fill="#898781">23.6% — ₹424</text><line x1="44" y1="129.7" x2="620" y2="129.7" stroke="#d03b3b" stroke-width="1.5" stroke-dasharray="5 4"/><text x="50.0" y="125.7" font-size="10" text-anchor="start" fill="#898781">38.2% — ₹438</text><line x1="44" y1="110.0" x2="620" y2="110.0" stroke="#d03b3b" stroke-width="1.5" stroke-dasharray="5 4"/><text x="50.0" y="106.0" font-size="10" text-anchor="start" fill="#898781">50% — ₹450</text><line x1="44" y1="90.3" x2="620" y2="90.3" stroke="#d03b3b" stroke-width="1.5" stroke-dasharray="5 4"/><text x="50.0" y="86.3" font-size="10" text-anchor="start" fill="#898781">61.8% golden ratio — ₹462</text><line x1="44" y1="212.0" x2="620" y2="212.0" stroke="#c3c2b7" stroke-width="1"/><text x="44.0" y="232" font-size="10" text-anchor="middle" fill="#898781">Swing high (₹500)</text><text x="620.0" y="232" font-size="10" text-anchor="middle" fill="#898781">Swing low (₹400)</text><path d="M 44.0 27.7 L 620.0 192.3" fill="none" stroke="#0b0b0b" stroke-width="2" stroke-linecap="round" stroke-linejoin="round"/></g>
</svg>