<svg xmlns="http://www.w3.org/2000/svg" viewBox="0 0 640 300" width="640" height="300" font-family="system-ui, -apple-system, 'Segoe UI', sans-serif">
  <rect x="0.5" y="0.5" width="639" height="299" rx="12" fill="#fcfcfb" stroke="rgba(11,11,11,0.10)"/>
  <text x="20" y="28" font-size="15" font-weight="600" fill="#0b0b0b">A moving average smooths noisy price</text>
  <text x="20" y="44" font-size="12" fill="#52514e">Same daily prices — jagged raw line vs its calm moving-average line</text>
  <g transform="translate(0, 44)"><line x1="44" y1="8.0" x2="620" y2="8.0" stroke="#e1e0d9" stroke-width="1"/><line x1="44" y1="59.0" x2="620" y2="59.0" stroke="#e1e0d9" stroke-width="1"/><line x1="44" y1="110.0" x2="620" y2="110.0" stroke="#e1e0d9" stroke-width="1"/><line x1="44" y1="161.0" x2="620" y2="161.0" stroke="#e1e0d9" stroke-width="1"/><line x1="44" y1="212.0" x2="620" y2="212.0" stroke="#e1e0d9" stroke-width="1"/><line x1="44" y1="212.0" x2="620" y2="212.0" stroke="#c3c2b7" stroke-width="1"/><text x="44.0" y="232" font-size="10" text-anchor="middle" fill="#898781">Day 1</text><text x="620.0" y="232" font-size="10" text-anchor="middle" fill="#898781">Day 12</text><path d="M 44.0 174.0 L 96.4 155.7 L 148.7 164.8 L 201.1 146.6 L 253.5 155.7 L 305.8 128.3 L 358.2 137.4 L 410.5 100.9 L 462.9 110.0 L 515.3 82.6 L 567.6 91.7 L 620.0 55.2" fill="none" stroke="#2a78d6" stroke-width="2" stroke-linecap="round" stroke-linejoin="round"/><text x="626.0" y="55.2" font-size="10" fill="#184f95">Moving average</text><path d="M 44.0 174.0 L 96.4 137.4 L 148.7 192.3 L 201.1 119.1 L 253.5 164.8 L 305.8 91.7 L 358.2 146.6 L 410.5 73.4 L 462.9 119.1 L 515.3 46.0 L 567.6 100.9 L 620.0 27.7" fill="none" stroke="#0b0b0b" stroke-width="2" stroke-linecap="round" stroke-linejoin="round"/></g>
</svg>