<svg xmlns="http://www.w3.org/2000/svg" viewBox="0 0 640 300" width="640" height="300" font-family="system-ui, -apple-system, 'Segoe UI', sans-serif">
  <rect x="0.5" y="0.5" width="639" height="299" rx="12" fill="#fcfcfb" stroke="rgba(11,11,11,0.10)"/>
  <text x="20" y="28" font-size="15" font-weight="600" fill="#0b0b0b">Head &amp; Shoulders (bearish)</text>
  <text x="20" y="44" font-size="12" fill="#52514e">Neckline at ₹150, pattern height ₹20 → target ≈ ₹130</text>
  <g transform="translate(0, 44)"><line x1="44" y1="8.0" x2="620" y2="8.0" stroke="#e1e0d9" stroke-width="1"/><line x1="44" y1="59.0" x2="620" y2="59.0" stroke="#e1e0d9" stroke-width="1"/><line x1="44" y1="110.0" x2="620" y2="110.0" stroke="#e1e0d9" stroke-width="1"/><line x1="44" y1="161.0" x2="620" y2="161.0" stroke="#e1e0d9" stroke-width="1"/><line x1="44" y1="212.0" x2="620" y2="212.0" stroke="#e1e0d9" stroke-width="1"/><line x1="44" y1="110.0" x2="620" y2="110.0" stroke="#2a78d6" stroke-width="1.5" stroke-dasharray="5 4"/><text x="50.0" y="106.0" font-size="10" text-anchor="start" fill="#898781">Neckline ₹150</text><line x1="44" y1="212.0" x2="620" y2="212.0" stroke="#c3c2b7" stroke-width="1"/><text x="44.0" y="232" font-size="10" text-anchor="middle" fill="#898781">Uptrend</text><text x="620.0" y="232" font-size="10" text-anchor="middle" fill="#898781">Target</text><text x="126.3" y="232" font-size="10" text-anchor="middle" fill="#898781">Left shoulder</text><text x="290.9" y="232" font-size="10" text-anchor="middle" fill="#898781">Head</text><text x="455.4" y="232" font-size="10" text-anchor="middle" fill="#898781">Right shoulder</text><path d="M 44.0 151.1 L 126.3 68.9 L 208.6 110.0 L 290.9 27.7 L 373.1 110.0 L 455.4 77.1 L 537.7 130.6 L 620.0 192.3" fill="none" stroke="#0b0b0b" stroke-width="2" stroke-linecap="round" stroke-linejoin="round"/><circle cx="126.3" cy="68.9" r="5" fill="#0b0b0b" stroke="#fcfcfb" stroke-width="2"/><text x="126.3" y="58.9" font-size="10.5" font-weight="600" text-anchor="middle" fill="#0b0b0b">Shoulder</text><circle cx="290.9" cy="27.7" r="5" fill="#0b0b0b" stroke="#fcfcfb" stroke-width="2"/><text x="290.9" y="17.7" font-size="10.5" font-weight="600" text-anchor="middle" fill="#0b0b0b">Head</text><circle cx="455.4" cy="77.1" r="5" fill="#0b0b0b" stroke="#fcfcfb" stroke-width="2"/><text x="455.4" y="67.1" font-size="10.5" font-weight="600" text-anchor="middle" fill="#0b0b0b">Shoulder</text><circle cx="620.0" cy="192.3" r="5" fill="#0ca30c" stroke="#fcfcfb" stroke-width="2"/><text x="620.0" y="182.3" font-size="10.5" font-weight="600" text-anchor="middle" fill="#0b0b0b">Target ₹130</text></g>
</svg>