<svg xmlns="http://www.w3.org/2000/svg" viewBox="0 0 640 300" width="640" height="300" font-family="system-ui, -apple-system, 'Segoe UI', sans-serif">
  <rect x="0.5" y="0.5" width="639" height="299" rx="12" fill="#fcfcfb" stroke="rgba(11,11,11,0.10)"/>
  <text x="20" y="28" font-size="15" font-weight="600" fill="#0b0b0b">Sunrise Ltd: support, resistance &amp; the flip</text>
  <text x="20" y="44" font-size="12" fill="#52514e">₹100 holds 3×, ₹120 fails 2× — then imagine it flips to support</text>
  <g transform="translate(0, 44)"><line x1="44" y1="8.0" x2="620" y2="8.0" stroke="#e1e0d9" stroke-width="1"/><line x1="44" y1="59.0" x2="620" y2="59.0" stroke="#e1e0d9" stroke-width="1"/><line x1="44" y1="110.0" x2="620" y2="110.0" stroke="#e1e0d9" stroke-width="1"/><line x1="44" y1="161.0" x2="620" y2="161.0" stroke="#e1e0d9" stroke-width="1"/><line x1="44" y1="212.0" x2="620" y2="212.0" stroke="#e1e0d9" stroke-width="1"/><line x1="44" y1="192.3" x2="620" y2="192.3" stroke="#2a78d6" stroke-width="1.5" stroke-dasharray="5 4"/><text x="50.0" y="188.3" font-size="10" text-anchor="start" fill="#898781">₹100 support (3 bounces)</text><line x1="44" y1="82.6" x2="620" y2="82.6" stroke="#d03b3b" stroke-width="1.5" stroke-dasharray="5 4"/><text x="50.0" y="78.6" font-size="10" text-anchor="start" fill="#898781">₹120 resistance → flips to support</text><line x1="44" y1="212.0" x2="620" y2="212.0" stroke="#c3c2b7" stroke-width="1"/><text x="44.0" y="232" font-size="10" text-anchor="middle" fill="#898781">Start</text><text x="620.0" y="232" font-size="10" text-anchor="middle" fill="#898781">Later</text><text x="531.4" y="232" font-size="10" text-anchor="middle" fill="#898781">12</text><text x="575.7" y="232" font-size="10" text-anchor="middle" fill="#898781">13</text><path d="M 44.0 137.4 L 88.3 192.3 L 132.6 93.5 L 176.9 82.6 L 221.2 175.8 L 265.5 192.3 L 309.8 88.1 L 354.2 82.6 L 398.5 170.3 L 442.8 192.3 L 487.1 104.5 L 531.4 49.7 L 575.7 82.6 L 620.0 27.7" fill="none" stroke="#0b0b0b" stroke-width="2" stroke-linecap="round" stroke-linejoin="round"/><circle cx="531.4" cy="49.7" r="5" fill="#0b0b0b" stroke="#fcfcfb" stroke-width="2"/><text x="531.4" y="39.7" font-size="10.5" font-weight="600" text-anchor="middle" fill="#0b0b0b">Closes above ₹120</text><circle cx="575.7" cy="82.6" r="5" fill="#0b0b0b" stroke="#fcfcfb" stroke-width="2"/><text x="575.7" y="100.6" font-size="10.5" font-weight="600" text-anchor="middle" fill="#0b0b0b">Old ceiling now floor</text></g>
</svg>