<svg xmlns="http://www.w3.org/2000/svg" viewBox="0 0 640 156" width="640" height="156" font-family="system-ui, -apple-system, 'Segoe UI', sans-serif">
  <rect x="0.5" y="0.5" width="639" height="155" rx="12" fill="#fcfcfb" stroke="rgba(11,11,11,0.10)"/>
  <text x="20" y="28" font-size="15" font-weight="600" fill="#0b0b0b">The Four Market Phases</text>
  <text x="20" y="44" font-size="12" fill="#52514e">Accumulation to markup to distribution to markdown, like the seasons</text>
  <g transform="translate(0, 44)"><rect x="20" y="70.0" width="126" height="56" rx="10" fill="#fcfcfb" stroke="#2a78d6" stroke-width="2"/><text x="83" y="102.0" font-size="11.5" font-weight="600" text-anchor="middle" fill="#0b0b0b">Accumulation</text><line x1="150" y1="98" x2="174" y2="98" stroke="#898781" stroke-width="1.5"/><path d="M 168 93 L 176 98 L 168 103 Z" fill="#898781"/><rect x="178" y="70.0" width="126" height="56" rx="10" fill="#fcfcfb" stroke="#2a78d6" stroke-width="2"/><text x="241" y="102.0" font-size="11.5" font-weight="600" text-anchor="middle" fill="#0b0b0b">Uptrend (Markup)</text><line x1="308" y1="98" x2="332" y2="98" stroke="#898781" stroke-width="1.5"/><path d="M 326 93 L 334 98 L 326 103 Z" fill="#898781"/><rect x="336" y="70.0" width="126" height="56" rx="10" fill="#fcfcfb" stroke="#2a78d6" stroke-width="2"/><text x="399" y="102.0" font-size="11.5" font-weight="600" text-anchor="middle" fill="#0b0b0b">Distribution</text><line x1="466" y1="98" x2="490" y2="98" stroke="#898781" stroke-width="1.5"/><path d="M 484 93 L 492 98 L 484 103 Z" fill="#898781"/><rect x="494" y="70.0" width="126" height="56" rx="10" fill="#fcfcfb" stroke="#2a78d6" stroke-width="2"/><text x="557" y="96.0" font-size="11.5" font-weight="600" text-anchor="middle" fill="#0b0b0b">Downtrend</text><text x="557" y="109.0" font-size="11.5" font-weight="600" text-anchor="middle" fill="#0b0b0b">(Markdown)</text></g>
</svg>